<svg width="10" height="9" viewBox="0 0 10 9" fill="none" xmlns="http://www.w3.org/2000/svg">
<path fill-rule="evenodd" clip-rule="evenodd" d="M8.22411 5.62715C7.85781 5.40788 7.38214 5.16368 6.95072 5.3397C6.62054 5.47554 6.4094 5.99344 6.19471 6.25748C6.08482 6.39331 5.95358 6.41418 5.78468 6.34652C4.54333 5.8515 3.59198 5.02275 2.9067 3.88112C2.79071 3.70357 2.81154 3.56367 2.95145 3.39934C3.15851 3.15565 3.41848 2.87889 3.47445 2.55024C3.53041 2.2221 3.37628 1.8385 3.24044 1.54546C3.06696 1.17204 2.87312 0.639386 2.49868 0.427747C2.15477 0.233405 1.70147 0.342272 1.39521 0.591559C0.86611 1.02298 0.610699 1.69759 0.61833 2.3671C0.620874 2.55737 0.644276 2.74713 0.688537 2.93028C0.795374 3.37136 0.998879 3.78395 1.22883 4.17518C1.40181 4.47076 1.59005 4.7577 1.79304 5.03344C2.45695 5.93545 3.28317 6.71943 4.23962 7.30551C4.71784 7.59804 5.23216 7.85495 5.76533 8.03098C6.36311 8.22837 6.89578 8.43391 7.54138 8.3113C8.217 8.18309 8.88397 7.7649 9.15208 7.1137C9.23145 6.92038 9.27112 6.70569 9.22686 6.50219C9.13477 6.08095 8.56497 5.83065 8.22411 5.62715Z" fill="white"/>
</svg>
